PathFileType	4	(X/Y/Z)	Patient4_TMGait_0pt4_02_right_10.trc.trc
DataRate	CameraRate	NumFrames	NumMarkers	Units	OrigDataRate	OrigDataStartFrame	OrigNumFrames
77.777777777778	77.777777777778	4	33	mm	77.777777777778	106	       141
Frame#	Time	Sacral			L.Shoulder			Chest			R.Shoulder			Neck			R.ASIS			L.ASIS			R.Thigh.Superior			R.Thigh.Lateral			R.Thigh.Inferior			R.Patella			L.Thigh.Superior			L.Thigh.Lateral			L.Thigh.Inferior			L.Patella			L.Shank.Superior			L.Shank.Lateral			L.Shank.Inferior			R.Shank.Superior			R.Shank.Lateral			R.Shank.Inferior			R.Heel			R.Midfoot.Superior			R.Midfoot.Lateral			R.Toe			L.Heel			L.Midfoot.Lateral			L.Midfoot.Superior			L.Toe			L.Elbow			L.Wrist			R.Elbow			R.Wrist			
		X1	Y1	Z1	X2	Y2	Z2	X3	Y3	Z3	X4	Y4	Z4	X5	Y5	Z5	X6	Y6	Z6	X7	Y7	Z7	X8	Y8	Z8	X9	Y9	Z9	X10	Y10	Z10	X11	Y11	Z11	X12	Y12	Z12	X13	Y13	Z13	X14	Y14	Z14	X15	Y15	Z15	X16	Y16	Z16	X17	Y17	Z17	X18	Y18	Z18	X19	Y19	Z19	X20	Y20	Z20	X21	Y21	Z21	X22	Y22	Z22	X23	Y23	Z23	X24	Y24	Z24	X25	Y25	Z25	X26	Y26	Z26	X27	Y27	Z27	X28	Y28	Z28	X29	Y29	Z29	X30	Y30	Z30	X31	Y31	Z31	X32	Y32	Z32	X33	Y33	Z33	

106	14.100000000000	891.517078167179	1012.312982933404	414.614792563968	1082.847620187166	1433.214349529742	212.794362069273	1177.852430499777	1373.308156339421	381.185780638286	1086.710941943660	1453.406475555548	548.173631282548	1061.917867051231	1500.831328942873	361.564964091214	1120.825317069148	958.761716066673	533.875063765289	1108.659294255641	964.888977055990	260.070607141708	1201.348671913879	783.452759581829	510.750758527980	1161.690377309689	664.916833458043	591.746079539170	1247.762883979642	621.158432564883	513.365032208911	1271.070246716916	518.366939343310	540.595505630813	1145.862631575647	748.587643342017	289.456025119713	1047.931179973955	636.848102035078	233.916411732348	1131.639381590429	555.860992302757	292.289444198904	1128.403415299841	487.007762088403	302.625733097667	1098.536429818266	415.893504326305	297.938055069581	1001.043020060109	304.727096408171	253.970892293917	1051.706228494752	192.654320504171	324.659401561300	1212.443662401663	435.057668857194	553.951449501828	1109.057477359934	370.047204074048	624.584960893462	1119.095113761471	258.691944602538	578.993702145776	940.069933971464	143.816571159833	567.450355077690	1118.969918251530	135.622785290569	595.252665628236	1017.726030644854	107.317624906865	639.280200605009	1215.528907639211	50.087543412499	623.749332953470	920.337624828646	39.671989721336	376.334607447218	990.709754323936	35.623798978013	292.543517443828	1075.631930666033	96.186463695273	315.217343606157	1202.936938712253	41.633947329939	281.958444133267	1124.949633960854	1093.160798582973	73.247198690594	1319.686397159496	916.939880178526	67.421044247056	1005.585446551411	1120.175594941526	681.587228559541	1036.668793323372	860.441151857030	690.627328635193	
107	14.112857142857	890.631307093977	1012.658346712989	413.573623432881	1084.398490464936	1433.126298596654	212.757129317447	1177.889839165321	1373.140498679916	381.952679178568	1085.530848000787	1453.545993238731	548.116142981934	1062.445633666559	1500.804892935087	361.118159742061	1119.258348568261	958.941381772632	534.377435877209	1108.583930881817	964.675423467833	260.510361202667	1199.744635568238	783.876338351180	510.913456482179	1160.635784027171	665.538830019615	592.245845190993	1246.138225693575	621.702158940834	513.463023052464	1270.928474091963	520.868722000074	540.609673999377	1143.934594469085	747.837925971421	290.746924495176	1045.488940861723	636.829644553762	234.030678996176	1127.873244514559	555.219410607781	293.156705506827	1123.870082340927	486.531991885992	303.490038973249	1094.074890895271	415.631632089201	298.481220918440	996.651559897435	304.609036308461	254.052708775618	1046.775376987477	192.481365872476	324.932770217508	1216.098208049311	436.278466289908	554.391432329594	1117.081581633455	366.030567555039	625.939978447291	1132.579719502437	255.398609208473	580.023976600603	959.939304300083	131.680255238962	569.587366129470	1139.067382849316	132.169668752573	596.297588945051	1039.750797501891	99.022458358930	640.941220103703	1239.791781092426	51.336454857171	624.156014004509	915.149873805591	39.615959264488	376.325794124280	985.510444206773	35.585300510610	292.524648767438	1070.433908523967	96.142178691425	315.284833117235	1197.759703526634	41.599355634747	281.953464163023	1129.741040288957	1094.130888375710	72.518916619922	1329.355750409025	923.430923712627	67.526297809405	995.334523139794	1122.970173287804	680.829207463658	1017.882181321547	862.562246088686	691.361154558421	
108	14.125714285714	889.766811187900	1012.949443581076	412.596317757435	1086.049179566479	1432.927028036052	212.903382465171	1178.015377891388	1372.839312869415	382.887236654849	1084.485915182147	1453.597436831328	548.220905236054	1063.064665878561	1500.695910996046	360.858452067900	1117.637121727313	958.953096967118	535.075485146719	1108.544299359916	964.377936350728	261.106612257602	1197.684512712968	783.787197532406	511.367525966587	1158.698084432105	665.760792522982	592.972762657210	1243.657260932210	621.670286648760	513.884787693794	1269.731187617762	522.981833925668	540.818369540825	1142.031857159932	747.057201208341	292.055778334381	1043.085713951475	636.782226506036	234.183189688628	1124.141066852617	554.562482742681	294.054488473973	1119.379227131322	486.052568184653	304.373392648008	1089.655491742966	415.348760123127	299.043914536035	992.294059356495	304.483149091030	254.126159140003	1041.823860492574	192.283729573354	325.207891413879	1219.001741170823	437.341270503614	554.949370996897	1124.866527313228	361.809216743786	627.351872397939	1146.102556997829	252.299617165156	580.983096141263	980.716555220654	119.679210711897	571.449512028183	1159.649096811820	129.231232469426	597.236767400579	1062.528257630252	91.041914031762	642.305277628148	1264.425016109044	53.393669363623	624.304339749040	909.966774164680	39.558830559470	376.306592043060	980.308341593194	35.539541574874	292.501483564977	1065.227809371162	96.092260716192	315.354425812661	1192.578533796370	41.565448254433	281.958445433599	1134.039818144785	1094.897941719168	72.064593523641	1338.314318170796	929.794759507085	67.990077093028	985.666050463496	1125.764793365339	680.020357629109	1000.328257605015	864.979305013969	691.924802130010	
109	14.138571428571	888.951445561819	1013.182697698456	411.696678510235	1087.774601393414	1432.632016667784	213.233480524384	1178.217427111528	1372.422709754016	383.984009406187	1083.568642566300	1453.566086296524	548.491120719429	1063.756665245227	1500.516537959688	360.793343095299	1115.990922041690	958.810347669148	535.963639737852	1108.573166987605	964.025147872928	261.846859346102	1195.187231120952	783.188467650170	512.129073986202	1155.902925526243	665.587211135148	593.932358093437	1240.369163688593	621.083709510597	514.627680787908	1267.511153141541	524.689233703789	541.208143418150	1140.176710198194	746.251502205134	293.379577028606	1040.734748553307	636.712913296622	234.381025189283	1120.457068156496	553.894522257551	294.985115445714	1114.949683805661	485.573029591959	305.271874597346	1085.290485180264	415.049620673111	299.622165681029	987.970324545223	304.360102561343	254.196169209254	1036.854778250844	192.065122748771	325.481223878416	1221.131263103686	438.274176919835	555.611983666853	1132.308916424666	357.512619414492	628.753510739263	1159.473395721860	249.542942090700	581.822931820290	1002.130235641868	108.143457689690	572.914249424367	1180.433315084069	126.972694738444	598.036810312714	1085.729676101489	83.614581898141	643.273173924531	1289.050867914391	56.330602475188	624.167596340174	904.786438790394	39.505709884805	376.276610440278	975.104642455204	35.489421111547	292.474385174411	1060.016823510870	96.037715418580	315.423411951329	1187.394529082478	41.530081911997	281.972589522274	1137.873940063952	1095.461449885730	71.884898749286	1346.538085699812	935.959917898090	68.816610961441	976.657966370798	1128.506686589537	679.201269077839	984.095697689717	867.562348669405	692.363848408205	
